<svg width="40" height="40" viewBox="0 0 40 40" fill="none" xmlns="http://www.w3.org/2000/svg">
<path d="M20 3.33331C22.5873 3.33322 25.0739 4.33592 26.9375 6.13076C28.801 7.92559 29.8963 10.3728 29.9933 12.9583L30 13.3333H31.6667C32.5076 13.333 33.3176 13.6507 33.9342 14.2225C34.5509 14.7943 34.9286 15.5781 34.9917 16.4166L35 16.6666V33.3333C35.0003 34.1743 34.6827 34.9843 34.1108 35.6009C33.539 36.2175 32.7553 36.5952 31.9167 36.6583L31.6667 36.6666H8.33333C7.49237 36.6669 6.68239 36.3493 6.06575 35.7775C5.44912 35.2057 5.07141 34.4219 5.00833 33.5833L5 33.3333V16.6666C4.99973 15.8257 5.31734 15.0157 5.88916 14.3991C6.46098 13.7824 7.24474 13.4047 8.08333 13.3416L8.33333 13.3333H10C10 10.6811 11.0536 8.13761 12.9289 6.26224C14.8043 4.38688 17.3478 3.33331 20 3.33331ZM31.6667 16.6666H8.33333V33.3333H31.6667V16.6666ZM20 20C20.711 20.0002 21.4033 20.2278 21.9757 20.6494C22.5482 21.071 22.9709 21.6647 23.182 22.3436C23.3931 23.0225 23.3816 23.7511 23.1491 24.4231C22.9167 25.095 22.4755 25.675 21.89 26.0783L21.6667 26.22V28.3333C21.6662 28.7581 21.5035 29.1667 21.2119 29.4756C20.9203 29.7845 20.5217 29.9704 20.0977 29.9953C19.6736 30.0202 19.256 29.8822 18.9303 29.6095C18.6045 29.3369 18.3952 28.9501 18.345 28.5283L18.3333 28.3333V26.22C17.6979 25.8531 17.2013 25.2867 16.9205 24.6088C16.6397 23.9309 16.5905 23.1793 16.7804 22.4706C16.9703 21.7618 17.3888 21.1355 17.9709 20.6888C18.553 20.2421 19.2662 20 20 20ZM20 6.66665C18.2319 6.66665 16.5362 7.36902 15.286 8.61927C14.0357 9.86951 13.3333 11.5652 13.3333 13.3333H26.6667C26.6667 11.5652 25.9643 9.86951 24.714 8.61927C23.4638 7.36902 21.7681 6.66665 20 6.66665Z" fill="black"/>
</svg>
