<svg width="67" height="75" viewBox="0 0 67 75" fill="none" xmlns="http://www.w3.org/2000/svg">
<path d="M63.0376 14.8333C63.9827 14.8344 64.8918 15.1963 65.5791 15.8451C66.2664 16.494 66.68 17.3808 66.7354 18.3243C66.7908 19.2679 66.4838 20.197 65.8772 20.9218C65.2705 21.6466 64.41 22.1124 63.4714 22.224L63.0376 22.25H62.7372L59.3292 63.0417C59.3294 65.8793 58.2452 68.6098 56.2985 70.6744C54.3517 72.739 51.6897 73.9817 48.8569 74.1481L48.2042 74.1667H18.5376C12.6116 74.1667 7.76856 69.535 7.44222 63.9688L7.42368 63.3495L4.00089 22.25H3.70423C2.75905 22.249 1.84994 21.887 1.16265 21.2382C0.475363 20.5893 0.0617703 19.7025 0.00637846 18.759C-0.0490134 17.8154 0.257977 16.8863 0.864624 16.1615C1.47127 15.4367 2.33179 14.9709 3.27035 14.8593L3.70423 14.8333H63.0376ZM25.9542 29.6667C24.9707 29.6667 24.0275 30.0574 23.332 30.7528C22.6366 31.4483 22.2459 32.3915 22.2459 33.375V55.625C22.2459 56.6085 22.6366 57.5517 23.332 58.2472C24.0275 58.9426 24.9707 59.3333 25.9542 59.3333C26.9377 59.3333 27.881 58.9426 28.5764 58.2472C29.2719 57.5517 29.6626 56.6085 29.6626 55.625V33.375C29.6626 32.3915 29.2719 31.4483 28.5764 30.7528C27.881 30.0574 26.9377 29.6667 25.9542 29.6667ZM40.7876 29.6667C39.804 29.6667 38.8608 30.0574 38.1654 30.7528C37.4699 31.4483 37.0792 32.3915 37.0792 33.375V55.625C37.0792 56.6085 37.4699 57.5517 38.1654 58.2472C38.8608 58.9426 39.804 59.3333 40.7876 59.3333C41.7711 59.3333 42.7143 58.9426 43.4097 58.2472C44.1052 57.5517 44.4959 56.6085 44.4959 55.625V33.375C44.4959 32.3915 44.1052 31.4483 43.4097 30.7528C42.7143 30.0574 41.7711 29.6667 40.7876 29.6667ZM40.7876 0C42.7546 0 44.641 0.781396 46.0319 2.17229C47.4228 3.56319 48.2042 5.44964 48.2042 7.41667C48.2032 8.36185 47.8413 9.27095 47.1924 9.95824C46.5436 10.6455 45.6568 11.0591 44.7132 11.1145C43.7697 11.1699 42.8406 10.8629 42.1158 10.2563C41.391 9.64962 40.9252 8.78911 40.8135 7.85054L40.7876 7.41667H25.9542L25.9283 7.85054C25.8166 8.78911 25.3508 9.64962 24.626 10.2563C23.9012 10.8629 22.9721 11.1699 22.0286 11.1145C21.085 11.0591 20.1982 10.6455 19.5494 9.95824C18.9005 9.27095 18.5386 8.36185 18.5376 7.41667C18.537 5.54553 19.2437 3.74332 20.5159 2.3713C21.7882 0.999287 23.5321 0.158877 25.398 0.0185421L25.9542 0H40.7876Z" fill="#0A2E65"/>
</svg>
