<svg width="126" height="126" viewBox="0 0 126 126" fill="none" xmlns="http://www.w3.org/2000/svg">
<path d="M62.9167 113.25C76.2659 113.25 89.0684 107.947 98.5077 98.5077C107.947 89.0684 113.25 76.2659 113.25 62.9167C113.25 49.5674 107.947 36.765 98.5077 27.3256C89.0684 17.8863 76.2659 12.5833 62.9167 12.5833C49.5674 12.5833 36.765 17.8863 27.3256 27.3256C17.8863 36.765 12.5833 49.5674 12.5833 62.9167C12.5833 76.2659 17.8863 89.0684 27.3256 98.5077C36.765 107.947 49.5674 113.25 62.9167 113.25ZM62.9167 125.833C28.1678 125.833 0 97.6655 0 62.9167C0 28.1678 28.1678 0 62.9167 0C97.6655 0 125.833 28.1678 125.833 62.9167C125.833 97.6655 97.6655 125.833 62.9167 125.833ZM56.625 88.0833H69.2083V100.667H56.625V88.0833ZM56.625 25.1667H69.2083V75.5H56.625V25.1667Z" fill="#0A2E65"/>
</svg>
